<svg width="24" height="24" viewBox="0 0 24 24" fill="none" xmlns="http://www.w3.org/2000/svg">
<path d="M8 8H10V19H8V8Z" fill="black"/>
<path d="M14 8H16V19H14V8Z" fill="black"/>
<path d="M2 3V4.75H3.66667V22.25C3.66667 22.7141 3.84226 23.1592 4.15482 23.4874C4.46738 23.8156 4.89131 24 5.33333 24H18.6667C19.1087 24 19.5326 23.8156 19.8452 23.4874C20.1577 23.1592 20.3333 22.7141 20.3333 22.25V4.75H22V3H2ZM5.33333 22.25V4.75H18.6667V22.25H5.33333Z" fill="black"/>
<path d="M8 0H16V2H8V0Z" fill="black"/>
</svg>
